<?xml version="1.0" encoding="UTF-8" standalone="no"?>
<svg
   xmlns:dc="http://purl.org/dc/elements/1.1/"
   xmlns:cc="http://creativecommons.org/ns#"
   xmlns:rdf="http://www.w3.org/1999/02/22-rdf-syntax-ns#"
   xmlns:svg="http://www.w3.org/2000/svg"
   xmlns="http://www.w3.org/2000/svg"
   xmlns:sodipodi="http://sodipodi.sourceforge.net/DTD/sodipodi-0.dtd"
   xmlns:inkscape="http://www.inkscape.org/namespaces/inkscape"
   inkscape:version="1.0 (4035a4fb49, 2020-05-01)"
   sodipodi:docname="Land Rover logo.svg"
   viewBox="0 0 594.39288 313.00955"
   height="313.00955"
   width="594.39288"
   xml:space="preserve"
   id="svg2"
   version="1.1"><metadata
     id="metadata8"><rdf:RDF><cc:Work
         rdf:about=""><dc:format>image/svg+xml</dc:format><dc:type
           rdf:resource="http://purl.org/dc/dcmitype/StillImage" /></cc:Work></rdf:RDF></metadata><defs
     id="defs6"><clipPath
       id="clipPath18"
       clipPathUnits="userSpaceOnUse"><path
         id="path16"
         d="M 0,0 H 595.275 V 841.89 H 0 Z" /></clipPath><clipPath
       id="clipPath48"
       clipPathUnits="userSpaceOnUse"><path
         id="path46"
         d="m 413.496,781.128 h 72.259 v 32.414 h -72.259 z" /></clipPath><clipPath
       id="clipPath84"
       clipPathUnits="userSpaceOnUse"><path
         id="path82"
         d="m 502.966,779.358 h 63.963 v 34.186 h -63.963 z" /></clipPath></defs><sodipodi:namedview
     inkscape:current-layer="g10"
     inkscape:window-maximized="1"
     inkscape:window-y="-8"
     inkscape:window-x="-8"
     inkscape:cy="1457.4121"
     inkscape:cx="1343.4445"
     inkscape:zoom="0.1767767"
     showgrid="false"
     id="namedview4"
     inkscape:window-height="1017"
     inkscape:window-width="1920"
     inkscape:pageshadow="2"
     inkscape:pageopacity="0"
     guidetolerance="10"
     gridtolerance="10"
     objecttolerance="10"
     borderopacity="1"
     bordercolor="#666666"
     pagecolor="#ffffff" /><g
     transform="matrix(1.3333333,0,0,-1.3333333,-670.62132,1084.724)"
     inkscape:label="Jaguar Land Rover Annual Report FY2021"
     inkscape:groupmode="layer"
     id="g10"><g
       style="fill:#000000;stroke-width:0.143467"
       transform="matrix(6.9702248,0,0,6.9702248,760.80856,694.11517)"
       id="g86"><path
         id="path88"
         style="fill:#000000;fill-opacity:1;fill-rule:nonzero;stroke:none;stroke-width:0.143467"
         d="M 0,0 -2.788,-5.475 H -2.846 L -2.987,0 h -2.332 l -0.091,-0.197 0.2,-0.122 c 0.193,-0.136 0.247,-0.274 0.272,-0.654 l 0.316,-6.644 h 2.598 L 2.169,0 Z m -8.299,-3.943 c -0.261,-0.749 -0.466,-1.231 -0.769,-1.549 -0.238,-0.25 -0.552,-0.429 -1.275,-0.429 -0.567,0 -0.883,0.232 -0.883,0.671 -0.004,0.283 0.073,0.713 0.376,1.55 0.262,0.748 0.467,1.23 0.771,1.548 0.235,0.25 0.55,0.43 1.274,0.43 0.567,0 0.882,-0.232 0.881,-0.669 0.006,-0.287 -0.071,-0.717 -0.375,-1.552 M -8.42,0.094 h -0.242 c -1.435,0 -2.255,-0.387 -2.928,-1.102 -0.837,-0.885 -1.623,-3.278 -1.608,-4.544 0.016,-1.291 0.851,-2.186 2.606,-2.186 h 0.257 c 1.439,0 2.259,0.387 2.932,1.102 0.836,0.887 1.606,3.279 1.591,4.544 -0.017,1.29 -0.852,2.186 -2.608,2.186 m -7.046,-2.859 c -0.131,-0.325 -0.275,-0.403 -0.464,-0.48 -0.127,-0.05 -0.396,-0.068 -0.655,-0.068 h -1.003 l 0.546,1.574 h 1.212 c 0.363,0 0.511,-0.189 0.516,-0.404 0.002,-0.137 -0.061,-0.388 -0.152,-0.622 M -15.646,0 h -3.289 l -0.066,-0.197 0.133,-0.131 c 0.14,-0.138 0.135,-0.302 0.012,-0.654 l -2.298,-6.635 h 2.1 l 0.898,2.634 0.711,-0.001 0.79,-2.633 h 2.11 l -0.992,2.695 c 0.576,0.093 0.865,0.258 1.154,0.515 0.396,0.362 0.67,0.87 0.897,1.618 0.332,1.085 0.131,1.705 -0.082,2.023 C -13.861,-0.328 -14.478,0 -15.646,0 M 6.386,-4.562 6.968,-2.969 H 4.291 l 0.415,1.216 h 2.9 L 8.243,0.005 H 2.768 L 2.692,-0.219 2.823,-0.348 c 0.141,-0.137 0.135,-0.3 0.013,-0.654 l -2.28,-6.612 h 5.116 l 0.618,1.77 H 3.304 l 0.44,1.282 z m 6.143,1.797 c -0.131,-0.325 -0.277,-0.403 -0.463,-0.48 -0.13,-0.05 -0.395,-0.068 -0.654,-0.068 H 10.41 l 0.541,1.574 h 1.214 c 0.361,0 0.511,-0.189 0.514,-0.404 0.004,-0.137 -0.061,-0.388 -0.15,-0.622 M 12.346,0 H 9.058 L 8.994,-0.197 9.126,-0.328 C 9.267,-0.466 9.26,-0.63 9.139,-0.982 l -2.3,-6.635 h 2.103 l 0.897,2.633 h 0.71 l 0.791,-2.633 h 2.108 l -0.99,2.695 c 0.575,0.093 0.864,0.258 1.152,0.515 0.397,0.362 0.672,0.87 0.899,1.618 0.332,1.085 0.131,1.705 -0.081,2.023 C 14.135,-0.328 13.517,0 12.346,0 m 4.312,-10.222 c -5.769,-2.981 -13.464,-4.623 -21.671,-4.623 -8.206,0 -15.9,1.642 -21.67,4.623 -5.549,2.868 -8.607,6.603 -8.607,10.515 0,3.915 3.058,7.65 8.607,10.516 5.77,2.98 13.464,4.624 21.67,4.624 8.207,0 15.902,-1.644 21.671,-4.624 5.55,-2.866 8.605,-6.601 8.605,-10.516 0,-3.912 -3.055,-7.647 -8.605,-10.515 m 0.781,22.543 c -6.008,3.104 -13.981,4.813 -22.452,4.813 -8.471,0 -16.445,-1.709 -22.451,-4.813 -3.558,-1.839 -9.528,-5.847 -9.528,-12.028 0,-6.178 5.97,-10.187 9.528,-12.026 6.005,-3.104 13.978,-4.813 22.451,-4.813 8.472,0 16.445,1.709 22.452,4.813 3.558,1.839 9.526,5.847 9.526,12.026 0,6.182 -5.968,10.189 -9.526,12.028 M 15.85,-8.659 c -6.207,-3.206 -13.928,-4.425 -20.863,-4.425 -6.936,0 -14.655,1.219 -20.864,4.425 -3.285,1.699 -7.652,4.829 -7.652,8.952 0,4.127 4.366,7.254 7.652,8.952 6.209,3.206 13.928,4.425 20.864,4.425 6.935,0 14.656,-1.217 20.863,-4.425 3.288,-1.698 7.653,-4.825 7.653,-8.952 0,-4.125 -4.366,-7.253 -7.653,-8.952 M 16.172,9.87 c -6.302,3.259 -14.149,4.506 -21.185,4.506 -7.037,0 -14.882,-1.248 -21.187,-4.506 -3.54,-1.828 -8.033,-5.128 -8.033,-9.577 0,-4.445 4.493,-7.747 8.033,-9.577 6.305,-3.256 14.152,-4.504 21.187,-4.504 7.036,0 14.883,1.246 21.185,4.504 3.542,1.83 8.035,5.132 8.035,9.577 0,4.449 -4.492,7.749 -8.035,9.577 m -37.081,-10.852 -5.747,-1.89 -0.702,-1.926 h 5.068 l 0.66,1.815 h -3.513 l 3.988,1.35 z M 1.959,7.457 h 0.833 c 0.567,0 0.88,-0.19 0.887,-0.629 C 3.684,6.545 3.608,6.157 3.314,5.322 3.054,4.575 2.846,4.142 2.551,3.825 2.314,3.575 1.999,3.464 1.276,3.464 H 0.58 Z M 0.133,8.282 -2.141,1.647 h 3.355 c 1.438,0 2.259,0.319 2.925,1.033 0.836,0.884 1.6,3.184 1.575,4.45 C 5.689,8.422 4.855,9.263 3.1,9.263 H 0.052 L -0.012,9.067 0.12,8.938 C 0.26,8.799 0.255,8.635 0.133,8.282 m 12.66,-1.75 H 7.725 L 7.065,4.719 h 3.512 L 6.588,3.365 6.342,2.716 12.089,4.606 Z M -9.858,1.651 h 1.91 l 1.666,4.927 0.974,-4.927 h 1.912 L -0.79,9.266 -2.788,9.263 -4.18,5.124 -4.975,9.263 H -7.668 L -7.734,9.067 -7.602,8.938 C -7.46,8.799 -7.467,8.635 -7.588,8.282 Z m -13.694,-0.004 5.197,0.002 0.628,1.815 h -3.021 l 1.996,5.799 h -2.606 l -0.065,-0.196 0.13,-0.129 c 0.142,-0.139 0.136,-0.303 0.014,-0.656 z m 11.057,5.511 h 0.068 l 0.036,-2.3 h -1.402 z m -5.321,-5.507 h 2.211 l 0.958,1.683 h 2.289 l 0.023,-1.683 h 2.006 l -0.433,7.612 h -3.003 l -0.067,-0.196 0.097,-0.097 c 0.158,-0.155 0.093,-0.378 -0.492,-1.306 z" /></g></g></svg>
